<svg version="1.1" id="Capa_1" xmlns="http://www.w3.org/2000/svg" xmlns:xlink="http://www.w3.org/1999/xlink" x="0px" y="0px" viewBox="0 0 345.942 345.942" style="enable-background:new 0 0 345.942 345.942;" xml:space="preserve">
  <path
    d="M281.925,235.102c-1.913-3.623-5.857-5.699-9.926-5.224h-47.02v-125.91c0.008-5.482-4.43-9.933-9.913-9.94
				c-0.179,0-0.358,0.004-0.536,0.014h-83.592c-5.475-0.289-10.147,3.916-10.435,9.39c-0.009,0.179-0.014,0.357-0.014,0.536v125.91
				h-47.02c-5.172-0.47-9.746,3.343-10.216,8.515c-0.261,2.87,0.809,5.7,2.902,7.681l99.265,96.653
				c3.706,4.04,9.986,4.31,14.025,0.603c0.21-0.192,0.411-0.394,0.603-0.603l99.265-97.698
				C282.531,242.83,283.644,238.6,281.925,235.102z M172.733,322.874l-73.665-72.098h31.869c5.747,0,10.449-7.314,10.449-13.061
				V114.939h62.694v122.776c0,5.747,4.702,13.061,10.449,13.061h31.869L172.733,322.874z"/>
  <path d="M130.937,83.592h83.592c5.771,0,10.449-4.678,10.449-10.449s-4.678-10.449-10.449-10.449h-83.592
				c-5.771,0-10.449,4.678-10.449,10.449S125.166,83.592,130.937,83.592z"/>
  <path d="M130.937,52.245h83.592c5.771,0,10.449-4.678,10.449-10.449s-4.678-10.449-10.449-10.449h-83.592
				c-5.771,0-10.449,4.678-10.449,10.449S125.166,52.245,130.937,52.245z"/>
  <path d="M130.937,20.898h83.592c5.771,0,10.449-4.678,10.449-10.449S220.3,0,214.529,0h-83.592
				c-5.771,0-10.449,4.678-10.449,10.449S125.166,20.898,130.937,20.898z"/>
</svg>
