<svg
  version="1.1"
  id="Capa_1"
  xmlns="http://www.w3.org/2000/svg"
  xmlns:xlink="http://www.w3.org/1999/xlink"
  x="0px"
  y="0px"
  width="607.916px"
  height="607.916px"
  viewBox="0 0 607.916 607.916"
  style="enable-background:new 0 0 607.916 607.916;"
  xml:space="preserve">
  <path
    d="M49.46,279.563h186.75c26.997,0,48.96-21.963,48.96-48.96V51.809c0-26.997-21.963-48.96-48.96-48.96H49.46
				c-26.997,0-48.96,21.963-48.96,48.96v178.794C0.5,257.601,22.463,279.563,49.46,279.563z M43.34,51.809
				c0-3.375,2.746-6.12,6.12-6.12h186.75c3.375,0,6.12,2.746,6.12,6.12v178.794c0,3.375-2.746,6.12-6.12,6.12H49.46
				c-3.375,0-6.12-2.746-6.12-6.12V51.809z"/>
  <path
    d="M236.21,280.063H49.46c-27.272,0-49.46-22.188-49.46-49.46V51.809c0-27.272,22.188-49.46,49.46-49.46h186.75
				c27.272,0,49.46,22.188,49.46,49.46v178.794C285.67,257.876,263.483,280.063,236.21,280.063z M49.46,3.349
				C22.739,3.349,1,25.088,1,51.809v178.794c0,26.721,21.739,48.46,48.46,48.46h186.75c26.721,0,48.46-21.739,48.46-48.46V51.809
				c0-26.721-21.739-48.46-48.46-48.46H49.46z M236.21,237.224H49.46c-3.65,0-6.62-2.97-6.62-6.62V51.809
				c0-3.65,2.97-6.62,6.62-6.62h186.75c3.65,0,6.62,2.97,6.62,6.62v178.794C242.831,234.254,239.861,237.224,236.21,237.224z
				 M49.46,46.189c-3.099,0-5.62,2.521-5.62,5.62v178.794c0,3.099,2.521,5.62,5.62,5.62h186.75c3.099,0,5.62-2.521,5.62-5.62V51.809
				c0-3.099-2.521-5.62-5.62-5.62H49.46z"/>
  <path
    d="M558.456,1.625H374.989c-26.996,0-48.96,21.963-48.96,48.96v19.323c0,26.997,21.964,48.96,48.96,48.96h183.467
				c26.996,0,48.96-21.963,48.96-48.96V50.585C607.416,23.588,585.452,1.625,558.456,1.625z M564.576,69.908
				c0,3.375-2.746,6.12-6.12,6.12H374.989c-3.374,0-6.12-2.746-6.12-6.12V50.585c0-3.375,2.746-6.12,6.12-6.12h183.467
				c3.374,0,6.12,2.746,6.12,6.12V69.908z"/>
  <path
    d="M558.456,119.368H374.989c-27.272,0-49.46-22.188-49.46-49.46V50.585c0-27.272,22.188-49.46,49.46-49.46h183.467
				c27.272,0,49.46,22.188,49.46,49.46v19.323C607.916,97.181,585.729,119.368,558.456,119.368z M374.989,2.125
				c-26.721,0-48.46,21.739-48.46,48.46v19.323c0,26.721,21.739,48.46,48.46,48.46h183.467c26.721,0,48.46-21.739,48.46-48.46
				V50.585c0-26.721-21.739-48.46-48.46-48.46H374.989z M558.456,76.528H374.989c-3.65,0-6.62-2.97-6.62-6.62V50.585
				c0-3.65,2.97-6.62,6.62-6.62h183.467c3.65,0,6.62,2.97,6.62,6.62v19.323C565.076,73.559,562.106,76.528,558.456,76.528z
				 M374.989,44.965c-3.099,0-5.62,2.521-5.62,5.62v19.323c0,3.099,2.521,5.62,5.62,5.62h183.467c3.099,0,5.62-2.521,5.62-5.62
				V50.585c0-3.099-2.521-5.62-5.62-5.62H374.989z"/>
  <path
    d="M558.456,162.32H374.989c-26.996,0-48.96,21.963-48.96,48.96v19.323c0,26.997,21.964,48.96,48.96,48.96h183.467
				c26.996,0,48.96-21.963,48.96-48.96V211.28C607.416,184.284,585.452,162.32,558.456,162.32z M564.576,230.604
				c0,3.375-2.746,6.12-6.12,6.12H374.989c-3.374,0-6.12-2.746-6.12-6.12V211.28c0-3.375,2.746-6.12,6.12-6.12h183.467
				c3.374,0,6.12,2.746,6.12,6.12V230.604z"/>
  <path
    d="M558.456,280.063H374.989c-27.272,0-49.46-22.188-49.46-49.46V211.28c0-27.272,22.188-49.46,49.46-49.46h183.467
				c27.272,0,49.46,22.188,49.46,49.46v19.323C607.916,257.876,585.729,280.063,558.456,280.063z M374.989,162.82
				c-26.721,0-48.46,21.739-48.46,48.46v19.323c0,26.721,21.739,48.46,48.46,48.46h183.467c26.721,0,48.46-21.739,48.46-48.46
				V211.28c0-26.721-21.739-48.46-48.46-48.46H374.989z M558.456,237.224H374.989c-3.65,0-6.62-2.97-6.62-6.62V211.28
				c0-3.65,2.97-6.62,6.62-6.62h183.467c3.65,0,6.62,2.97,6.62,6.62v19.323C565.076,234.254,562.106,237.224,558.456,237.224z
				 M374.989,205.66c-3.099,0-5.62,2.521-5.62,5.62v19.323c0,3.099,2.521,5.62,5.62,5.62h183.467c3.099,0,5.62-2.521,5.62-5.62
				V211.28c0-3.099-2.521-5.62-5.62-5.62H374.989z"/>
  <path
    d="M0.5,557.332c0,26.996,21.963,48.959,48.96,48.959h186.75c26.997,0,48.96-21.963,48.96-48.959V378.537
				c0-26.996-21.963-48.959-48.96-48.959H49.46c-26.997,0-48.96,21.963-48.96,48.959V557.332z M43.34,378.537
				c0-3.375,2.746-6.119,6.12-6.119h186.75c3.375,0,6.12,2.744,6.12,6.119v178.795c0,3.375-2.746,6.119-6.12,6.119H49.46
				c-3.375,0-6.12-2.744-6.12-6.119V378.537z"/>
  <path
    d="M236.21,606.791H49.46C22.188,606.791,0,584.604,0,557.332V378.537c0-27.271,22.188-49.459,49.46-49.459h186.75
				c27.272,0,49.46,22.188,49.46,49.459v178.795C285.67,584.604,263.483,606.791,236.21,606.791z M49.46,330.078
				C22.739,330.078,1,351.816,1,378.537v178.795c0,26.721,21.739,48.459,48.46,48.459h186.75c26.721,0,48.46-21.738,48.46-48.459
				V378.537c0-26.721-21.739-48.459-48.46-48.459H49.46z M236.21,563.951H49.46c-3.65,0-6.62-2.97-6.62-6.619V378.537
				c0-3.649,2.97-6.619,6.62-6.619h186.75c3.65,0,6.62,2.97,6.62,6.619v178.795C242.831,560.981,239.861,563.951,236.21,563.951z
				 M49.46,372.918c-3.099,0-5.62,2.521-5.62,5.619v178.795c0,3.099,2.521,5.619,5.62,5.619h186.75c3.099,0,5.62-2.521,5.62-5.619
				V378.537c0-3.099-2.521-5.619-5.62-5.619H49.46z"/>
  <path
    d="M558.456,329.578H374.989c-26.996,0-48.96,21.963-48.96,48.959v19.324c0,26.996,21.964,48.959,48.96,48.959h183.467
				c26.996,0,48.96-21.963,48.96-48.959v-19.324C607.416,351.541,585.452,329.578,558.456,329.578z M564.576,397.861
				c0,3.373-2.746,6.119-6.12,6.119H374.989c-3.374,0-6.12-2.746-6.12-6.119v-19.324c0-3.375,2.746-6.119,6.12-6.119h183.467
				c3.374,0,6.12,2.744,6.12,6.119V397.861z"/>
  <path
    d="M558.456,447.32H374.989c-27.272,0-49.46-22.188-49.46-49.459v-19.324c0-27.271,22.188-49.459,49.46-49.459h183.467
				c27.272,0,49.46,22.188,49.46,49.459v19.324C607.916,425.133,585.729,447.32,558.456,447.32z M374.989,330.078
				c-26.721,0-48.46,21.738-48.46,48.459v19.324c0,26.721,21.739,48.459,48.46,48.459h183.467c26.721,0,48.46-21.738,48.46-48.459
				v-19.324c0-26.721-21.739-48.459-48.46-48.459H374.989z M558.456,404.48H374.989c-3.65,0-6.62-2.97-6.62-6.619v-19.324
				c0-3.649,2.97-6.619,6.62-6.619h183.467c3.65,0,6.62,2.97,6.62,6.619v19.324C565.076,401.511,562.106,404.48,558.456,404.48z
				 M374.989,372.918c-3.099,0-5.62,2.521-5.62,5.619v19.324c0,3.099,2.521,5.619,5.62,5.619h183.467c3.099,0,5.62-2.521,5.62-5.619
				v-19.324c0-3.099-2.521-5.619-5.62-5.619H374.989z"/>
  <path
    d="M558.456,488.438H374.989c-26.996,0-48.96,21.963-48.96,48.959v19.324c0,26.996,21.964,48.959,48.96,48.959h183.467
				c26.996,0,48.96-21.963,48.96-48.959v-19.324C607.416,510.4,585.452,488.438,558.456,488.438z M564.576,556.721
				c0,3.373-2.746,6.119-6.12,6.119H374.989c-3.374,0-6.12-2.746-6.12-6.119v-19.324c0-3.375,2.746-6.119,6.12-6.119h183.467
				c3.374,0,6.12,2.744,6.12,6.119V556.721z"/>
  <path
    d="M558.456,606.18H374.989c-27.272,0-49.46-22.188-49.46-49.459v-19.324c0-27.271,22.188-49.459,49.46-49.459h183.467
				c27.272,0,49.46,22.188,49.46,49.459v19.324C607.916,583.992,585.729,606.18,558.456,606.18z M374.989,488.938
				c-26.721,0-48.46,21.738-48.46,48.459v19.324c0,26.721,21.739,48.459,48.46,48.459h183.467c26.721,0,48.46-21.738,48.46-48.459
				v-19.324c0-26.721-21.739-48.459-48.46-48.459H374.989z M558.456,563.34H374.989c-3.65,0-6.62-2.97-6.62-6.619v-19.324
				c0-3.649,2.97-6.619,6.62-6.619h183.467c3.65,0,6.62,2.97,6.62,6.619v19.324C565.076,560.37,562.106,563.34,558.456,563.34z
				 M374.989,531.777c-3.099,0-5.62,2.521-5.62,5.619v19.324c0,3.099,2.521,5.619,5.62,5.619h183.467c3.099,0,5.62-2.521,5.62-5.619
				v-19.324c0-3.099-2.521-5.619-5.62-5.619H374.989z"/>
</svg>
