<svg xmlns="http://www.w3.org/2000/svg" viewBox="0 0 32 32">
  <path
    style="text-indent:0;text-align:start;line-height:normal;text-transform:none;block-progression:tb;-inkscape-font-specification:Bitstream Vera Sans"
    d="M 15 5 C 13.707983 5 12.605718 5.8442551 12.1875 7 L 4 7 L 4 9 L 12.1875 9 C 12.605718 10.155745 13.707983 11 15 11 C 16.292017 11 17.394282 10.155745 17.8125 9 L 28 9 L 28 7 L 17.8125 7 C 17.394282 5.8442551 16.292017 5 15 5 z M 15 7 C 15.564129 7 16 7.4358709 16 8 C 16 8.5641291 15.564129 9 15 9 C 14.435871 9 14 8.5641291 14 8 C 14 7.4358709 14.435871 7 15 7 z M 22 13 C 20.707982 13 19.605718 13.844255 19.1875 15 L 4 15 L 4 17 L 19.1875 17 C 19.605718 18.155745 20.707982 19 22 19 C 23.292018 19 24.394282 18.155745 24.8125 17 L 28 17 L 28 15 L 24.8125 15 C 24.394282 13.844255 23.292018 13 22 13 z M 22 15 C 22.564128 15 23 15.435872 23 16 C 23 16.564128 22.564128 17 22 17 C 21.435872 17 21 16.564128 21 16 C 21 15.435872 21.435872 15 22 15 z M 11 21 C 9.7079818 21 8.6057178 21.844255 8.1875 23 L 4 23 L 4 25 L 8.1875 25 C 8.6057178 26.155745 9.7079818 27 11 27 C 12.292018 27 13.394282 26.155745 13.8125 25 L 28 25 L 28 23 L 13.8125 23 C 13.394282 21.844255 12.292018 21 11 21 z M 11 23 C 11.564128 23 12 23.435872 12 24 C 12 24.564128 11.564128 25 11 25 C 10.435871 25 10 24.564129 10 24 C 10 23.435871 10.435871 23 11 23 z"/>
</svg>
